<svg width="38" height="38" viewBox="0 0 38 38" fill="none" xmlns="http://www.w3.org/2000/svg">
<mask id="path-1-inside-1_72_494" fill="white">
<path d="M2.29318 17.8463V29.2822H9.72128V37.2522H22.8264V29.2822H29.6311C33.221 29.2822 36.1311 26.372 36.1311 22.7822V17.8463L2.29318 17.8463Z"/>
<path fill-rule="evenodd" clip-rule="evenodd" d="M12.2907 12.886L35.7466 12.886C36.4686 12.886 37.054 14.4326 37.054 15.1546C37.054 15.8766 36.4686 17.0772 35.7466 17.0772L12.2907 17.0772V12.886Z"/>
<path d="M2.1676 0.389404C1.06303 0.389404 0.167603 1.28483 0.167603 2.3894V4.94312H11.5217V2.3894C11.5217 1.28483 10.6263 0.389404 9.52173 0.389404H2.1676Z"/>
<path d="M11.5217 5.94312H0.167603V17.0774C0.167603 17.6297 0.615318 18.0774 1.1676 18.0774H11.5217V5.94312Z"/>
</mask>
<path d="M2.29318 17.8463V29.2822H9.72128V37.2522H22.8264V29.2822H29.6311C33.221 29.2822 36.1311 26.372 36.1311 22.7822V17.8463L2.29318 17.8463Z" fill="black"/>
<path fill-rule="evenodd" clip-rule="evenodd" d="M12.2907 12.886L35.7466 12.886C36.4686 12.886 37.054 14.4326 37.054 15.1546C37.054 15.8766 36.4686 17.0772 35.7466 17.0772L12.2907 17.0772V12.886Z" fill="black"/>
<path d="M2.1676 0.389404C1.06303 0.389404 0.167603 1.28483 0.167603 2.3894V4.94312H11.5217V2.3894C11.5217 1.28483 10.6263 0.389404 9.52173 0.389404H2.1676Z" fill="black"/>
<path d="M11.5217 5.94312H0.167603V17.0774C0.167603 17.6297 0.615318 18.0774 1.1676 18.0774H11.5217V5.94312Z" fill="black"/>
<path d="M2.29318 29.2822H1.29318V30.2822H2.29318V29.2822ZM2.29318 17.8463L2.29318 16.8463L1.29318 16.8463V17.8463H2.29318ZM9.72128 29.2822H10.7213V28.2822H9.72128V29.2822ZM9.72128 37.2522H8.72128V38.2522H9.72128V37.2522ZM22.8264 37.2522V38.2522H23.8264V37.2522H22.8264ZM22.8264 29.2822V28.2822H21.8264V29.2822H22.8264ZM36.1311 17.8463H37.1311V16.8463L36.1311 16.8463L36.1311 17.8463ZM12.2907 12.886L12.2907 11.886L11.2907 11.886V12.886H12.2907ZM35.7466 12.886L35.7466 13.886H35.7466V12.886ZM35.7466 17.0772L35.7466 18.0772H35.7466V17.0772ZM12.2907 17.0772H11.2907V18.0772L12.2907 18.0772L12.2907 17.0772ZM0.167603 4.94312H-0.832397V5.94312H0.167603V4.94312ZM11.5217 4.94312V5.94312H12.5217V4.94312H11.5217ZM11.5217 5.94312H12.5217V4.94312H11.5217V5.94312ZM0.167603 5.94312V4.94312H-0.832397V5.94312H0.167603ZM11.5217 18.0774V19.0774H12.5217V18.0774H11.5217ZM3.29318 29.2822V17.8463H1.29318V29.2822H3.29318ZM9.72128 28.2822H2.29318V30.2822H9.72128V28.2822ZM10.7213 37.2522V29.2822H8.72128V37.2522H10.7213ZM22.8264 36.2522H9.72128V38.2522H22.8264V36.2522ZM21.8264 29.2822V37.2522H23.8264V29.2822H21.8264ZM29.6311 28.2822H22.8264V30.2822H29.6311V28.2822ZM35.1311 22.7822C35.1311 25.8197 32.6687 28.2822 29.6311 28.2822V30.2822C33.7733 30.2822 37.1311 26.9243 37.1311 22.7822H35.1311ZM35.1311 17.8463V22.7822H37.1311V17.8463H35.1311ZM2.29318 18.8463L36.1311 18.8463L36.1311 16.8463L2.29318 16.8463L2.29318 18.8463ZM38.054 15.1546C38.054 14.5987 37.8512 13.8783 37.5669 13.3051C37.4204 13.0098 37.2221 12.6911 36.9623 12.4315C36.7101 12.1795 36.2985 11.886 35.7466 11.886V13.886C35.5557 13.886 35.488 13.7857 35.5487 13.8463C35.6017 13.8993 35.6851 14.0123 35.7752 14.1939C35.8617 14.3683 35.935 14.5667 35.9854 14.7547C36.038 14.9507 36.054 15.0909 36.054 15.1546H38.054ZM35.7466 18.0772C36.6628 18.0772 37.2495 17.3617 37.5263 16.9049C37.837 16.3921 38.054 15.7343 38.054 15.1546H36.054C36.054 15.2106 36.0406 15.3194 35.9958 15.4644C35.9523 15.605 35.8892 15.7473 35.8158 15.8684C35.7399 15.9937 35.6724 16.0645 35.6347 16.0943C35.5987 16.1229 35.6391 16.0772 35.7466 16.0772V18.0772ZM11.2907 12.886V17.0772H13.2907V12.886H11.2907ZM35.7466 11.886L12.2907 11.886L12.2907 13.886L35.7466 13.886L35.7466 11.886ZM12.2907 18.0772L35.7466 18.0772L35.7466 16.0772L12.2907 16.0772L12.2907 18.0772ZM1.1676 2.3894C1.1676 1.83712 1.61532 1.3894 2.1676 1.3894V-0.610596C0.51075 -0.610596 -0.832397 0.732545 -0.832397 2.3894H1.1676ZM1.1676 4.94312V2.3894H-0.832397V4.94312H1.1676ZM0.167603 5.94312H11.5217V3.94312H0.167603V5.94312ZM10.5217 2.3894V4.94312H12.5217V2.3894H10.5217ZM9.52173 1.3894C10.074 1.3894 10.5217 1.83712 10.5217 2.3894H12.5217C12.5217 0.73255 11.1786 -0.610596 9.52173 -0.610596V1.3894ZM2.1676 1.3894H9.52173V-0.610596H2.1676V1.3894ZM11.5217 4.94312H0.167603V6.94312H11.5217V4.94312ZM1.1676 17.0774V5.94312H-0.832397V17.0774H1.1676ZM1.1676 17.0774H1.1676H-0.832397C-0.832397 18.182 0.063033 19.0774 1.1676 19.0774V17.0774ZM11.5217 17.0774H1.1676V19.0774H11.5217V17.0774ZM10.5217 5.94312V18.0774H12.5217V5.94312H10.5217Z" fill="black" mask="url(#path-1-inside-1_72_494)"/>
</svg>
