<svg width="22" height="42" viewBox="0 0 22 42" fill="none" xmlns="http://www.w3.org/2000/svg">
<path d="M0.827576 19.7438C0.827576 19.2536 1.13561 18.8566 1.51485 18.858L20.7021 18.9312C21.0797 18.9326 21.3853 19.3288 21.3853 19.817V22.396C21.3853 22.8862 21.0773 23.2832 20.698 23.2818L1.51081 23.2086C1.13315 23.2072 0.827576 22.811 0.827576 22.3228V19.7438Z" fill="black"/>
<path fill-rule="evenodd" clip-rule="evenodd" d="M19.8031 41.5264C19.1661 41.5264 18.6498 41.0654 18.6498 40.4967V22.8548H20.9564V40.4967C20.9564 41.0654 20.44 41.5264 19.8031 41.5264Z" fill="black"/>
<path fill-rule="evenodd" clip-rule="evenodd" d="M2.15046 41.5265C1.49431 41.5265 0.962403 41.0655 0.962402 40.4968L0.962402 22.8549H3.33851L3.33851 40.4968C3.33851 41.0655 2.8066 41.5265 2.15046 41.5265Z" fill="black"/>
<path fill-rule="evenodd" clip-rule="evenodd" d="M2.15046 0.473877C2.8066 0.473877 3.33851 0.969025 3.33851 1.57982L3.33851 19.3048H0.962413L0.962412 1.57982C0.962412 0.969025 1.49432 0.473877 2.15046 0.473877Z" fill="black"/>
<path fill-rule="evenodd" clip-rule="evenodd" d="M3.80201 30.9589L18.1862 30.9585L18.1863 32.5901L3.80205 32.5905L3.80201 30.9589Z" fill="black"/>
</svg>
