<svg width="28" height="36" viewBox="0 0 28 36" fill="none" xmlns="http://www.w3.org/2000/svg">
<path fill-rule="evenodd" clip-rule="evenodd" d="M4.12896 35.4195C4.12896 35.5735 4.19014 35.7212 4.29903 35.8301C4.40792 35.9389 4.55561 36.0001 4.70961 36.0001H23.2903C23.4443 36.0001 23.592 35.9389 23.7009 35.8301C23.8098 35.7212 23.871 35.5735 23.871 35.4195L24.9161 14.5162H3.08379L4.12896 35.4195ZM14.2903 19.7684C14.611 19.7684 14.8709 20.0284 14.8709 20.349V21.2563C15.3009 21.3502 15.7046 21.5479 16.0452 21.8357C16.536 22.2504 16.864 22.8255 16.9711 23.459C17.0245 23.7752 16.8115 24.0749 16.4953 24.1283C16.1791 24.1818 15.8795 23.9688 15.826 23.6526C15.7647 23.2897 15.5768 22.9602 15.2957 22.7227C15.019 22.4889 14.6697 22.359 14.3079 22.355C14.302 22.3552 14.2962 22.3553 14.2903 22.3553C14.2842 22.3553 14.2781 22.3552 14.272 22.355C13.3533 22.3626 12.7331 22.9438 12.7331 23.734C12.7331 24.1172 12.8939 24.3865 13.177 24.6067C13.4815 24.8435 13.9215 25.0137 14.4189 25.1274C14.9913 25.2566 15.6199 25.4761 16.1169 25.8632C16.6354 26.2671 17.0088 26.8562 17.0088 27.6533C17.0088 29.0033 16.0527 29.9139 14.8709 30.1392V31.0382C14.8709 31.3589 14.611 31.6189 14.2903 31.6189C13.9696 31.6189 13.7096 31.3589 13.7096 31.0382V30.1309C13.2054 30.0207 12.7387 29.7681 12.368 29.3974C11.8582 28.8876 11.5718 28.1962 11.5718 27.4752C11.5718 27.1545 11.8318 26.8945 12.1525 26.8945C12.4731 26.8945 12.7331 27.1545 12.7331 27.4752C12.7331 27.8882 12.8972 28.2842 13.1892 28.5763C13.4812 28.8683 13.8773 29.0324 14.2903 29.0324C15.2189 29.0324 15.8475 28.4483 15.8475 27.6533C15.8475 27.2701 15.6864 27 15.4032 26.7793C15.0988 26.5422 14.6589 26.372 14.1626 26.2601L14.1609 26.2597C13.5897 26.1292 12.961 25.9099 12.464 25.5233C11.9454 25.1199 11.5718 24.5315 11.5718 23.734C11.5718 22.3835 12.5279 21.4732 13.7096 21.2481V20.349C13.7096 20.0284 13.9696 19.7684 14.2903 19.7684Z" fill="#202020"/>
<path d="M23.8129 0.348388C23.7684 0.246321 23.6954 0.15921 23.6028 0.0974398C23.5101 0.0356696 23.4017 0.00184576 23.2903 0H4.70961C4.59826 0.00184576 4.4898 0.0356696 4.39715 0.0974398C4.30449 0.15921 4.23155 0.246321 4.18702 0.348388L2.61928 3.48388H25.3806L23.8129 0.348388Z" fill="#202020"/>
<path d="M26.7742 5.80647H1.22573C0.905045 5.80647 0.645081 6.06644 0.645081 6.38712V11.6129C0.645081 11.9336 0.905045 12.1936 1.22573 12.1936H26.7742C27.0949 12.1936 27.3548 11.9336 27.3548 11.6129V6.38712C27.3548 6.06644 27.0949 5.80647 26.7742 5.80647Z" fill="#202020"/>
</svg>
