<svg width="34" height="34" viewBox="0 0 34 34" fill="none" xmlns="http://www.w3.org/2000/svg">
<path fill-rule="evenodd" clip-rule="evenodd" d="M17.5742 33.4258C17.5742 33.7429 17.3171 34 17 34C16.6829 34 16.4259 33.7429 16.4259 33.4258V28.8324C16.4259 28.5153 16.6829 28.2583 17 28.2583C17.3171 28.2583 17.5742 28.5153 17.5742 28.8324V33.4258ZM17.5742 1.01753C17.5742 0.700426 17.3171 0.443359 17 0.443359C16.6829 0.443359 16.4259 0.700426 16.4259 1.01753V5.61092C16.4259 5.92803 16.6829 6.1851 17 6.1851C17.3171 6.1851 17.5742 5.92803 17.5742 5.61092V1.01753ZM0.923173 16.5202C0.606065 16.5202 0.348999 16.7773 0.348999 17.0944C0.348999 17.4115 0.606065 17.6686 0.923173 17.6686H5.51656C5.83367 17.6686 6.09074 17.4115 6.09074 17.0944C6.09074 16.7773 5.83367 16.5202 5.51656 16.5202H0.923173ZM28.4835 16.5202C28.1664 16.5202 27.9093 16.7773 27.9093 17.0944C27.9093 17.4115 28.1664 17.6686 28.4835 17.6686H33.0769C33.394 17.6686 33.6511 17.4115 33.6511 17.0944C33.6511 16.7773 33.394 16.5202 33.0769 16.5202H28.4835ZM5.5699 28.7791C5.79413 29.0033 6.15768 29.0033 6.38191 28.7791L9.59728 25.5637C9.82151 25.3395 9.82151 24.9759 9.59728 24.7517C9.37305 24.5275 9.0095 24.5275 8.78527 24.7517L5.5699 27.9671C5.34567 28.1913 5.34567 28.5548 5.5699 28.7791ZM28.4302 28.7791C28.6544 28.5548 28.6544 28.1913 28.4302 27.9671L25.2148 24.7517C24.9906 24.5275 24.627 24.5275 24.4028 24.7517C24.1786 24.9759 24.1786 25.3395 24.4028 25.5637L27.6182 28.7791C27.8424 29.0033 28.2059 29.0033 28.4302 28.7791ZM6.38191 5.66429C6.15768 5.44006 5.79413 5.44006 5.5699 5.66429C5.34567 5.88852 5.34567 6.25206 5.5699 6.47629L8.78527 9.69166C9.0095 9.91589 9.37305 9.91589 9.59728 9.69166C9.82151 9.46744 9.82151 9.10389 9.59728 8.87966L6.38191 5.66429ZM28.4302 6.47629C28.6544 6.25206 28.6544 5.88852 28.4302 5.66429C28.2059 5.44006 27.8424 5.44006 27.6182 5.66429L24.4028 8.87966C24.1786 9.10389 24.1786 9.46744 24.4028 9.69166C24.627 9.91589 24.9906 9.91589 25.2148 9.69166L28.4302 6.47629Z" fill="#202020"/>
<path d="M24.4643 17.0944C24.4643 21.2168 21.1224 24.5587 17.0001 24.5587C12.8777 24.5587 9.53579 21.2168 9.53579 17.0944C9.53579 12.972 12.8777 9.63015 17.0001 9.63015C21.1224 9.63015 24.4643 12.972 24.4643 17.0944Z" fill="black"/>
</svg>
