<svg width="20" height="38" viewBox="0 0 20 38" fill="none" xmlns="http://www.w3.org/2000/svg">
<path fill-rule="evenodd" clip-rule="evenodd" d="M5 0C4.07952 0 3.33333 0.832664 3.33333 1.85979V8.17576C4.0625 8.2772 5.625 8.17576 6.66667 8.17576C6.66667 5.77192 6.66667 1.85979 6.66667 1.85979C6.66667 0.832664 5.92048 0 5 0ZM11.6667 26.6869C16.3962 25.8016 20 21.2117 20 15.6825V8.24339H0V15.6825C0 21.2117 3.60382 25.8016 8.33333 26.6869V36.1402C8.33333 37.1674 9.0795 38 10 38C10.9205 38 11.6667 37.1674 11.6667 36.1402V26.6869ZM13.3333 1.85979C13.3333 0.832664 14.0795 0 15 0C15.9205 0 16.6667 0.832664 16.6667 1.85979V8.17576C15.3125 8.17576 14.0625 8.17576 13.3333 8.17576C13.3333 5.77191 13.3333 1.85979 13.3333 1.85979Z" fill="black"/>
</svg>
