<svg width="24" height="42" viewBox="0 0 24 42" fill="none" xmlns="http://www.w3.org/2000/svg">
<path fill-rule="evenodd" clip-rule="evenodd" d="M13.3867 1.59732C13.1776 1.45796 12.9089 1.44497 12.6874 1.56352C12.4659 1.68206 12.3276 1.9129 12.3276 2.16413V28.7231C11.962 28.7149 11.5818 28.7017 11.1903 28.6881L11.1012 28.685C10.4323 28.6617 9.734 28.6385 9.04911 28.6407C7.70015 28.645 6.3061 28.7455 5.21285 29.1983C4.09256 29.6624 3.13503 30.4482 2.46135 31.4564C1.78768 32.4646 1.4281 33.65 1.4281 34.8626C1.4281 36.4886 2.07404 38.0481 3.22382 39.1978C4.37359 40.3476 5.93303 40.9935 7.55906 40.9935C9.18509 40.9935 10.7445 40.3476 11.8943 39.1978C13.0441 38.0481 13.69 36.4886 13.69 34.8626V29.4128V3.42855C17.5989 5.99177 21.8646 8.87024 21.8646 15.7885C21.8646 16.1647 22.1696 16.4697 22.5459 16.4697C22.9221 16.4697 23.2271 16.1647 23.2271 15.7885C23.2271 8.02704 18.2478 4.77566 14.3177 2.20942C13.9994 2.00157 13.688 1.79821 13.3867 1.59732Z" fill="black" stroke="black" stroke-miterlimit="10" stroke-linecap="round" stroke-linejoin="round"/>
</svg>
