<svg width="38" height="30" viewBox="0 0 38 30" fill="none" xmlns="http://www.w3.org/2000/svg">
<path fill-rule="evenodd" clip-rule="evenodd" d="M20.9655 8.2308V25.4961H17.6897V8.2308H20.9655Z" fill="black"/>
<path fill-rule="evenodd" clip-rule="evenodd" d="M9.82758 28.4988C9.82758 27.6696 10.4142 26.9975 11.1379 26.9975H27.5172C28.2409 26.9975 28.8276 27.6696 28.8276 28.4988C28.8276 29.328 28.2409 30.0001 27.5172 30.0001H11.1379C10.4142 30.0001 9.82758 29.328 9.82758 28.4988Z" fill="black"/>
<path fill-rule="evenodd" clip-rule="evenodd" d="M0 3.72678C0 2.06846 0.586661 0.724121 1.31034 0.724121H36.6897C37.4133 0.724121 38 2.06846 38 3.72678C38 5.3851 37.4133 6.72943 36.6897 6.72943H1.31034C0.586661 6.72943 0 5.3851 0 3.72678Z" fill="black"/>
</svg>
